<mxfile host="65bd71144e">
    <diagram id="ACE1136-mC4QP94pOkDs" name="Page-1">
        <mxGraphModel dx="1044" dy="612" grid="1" gridSize="10" guides="1" tooltips="1" connect="1" arrows="1" fold="1" page="1" pageScale="1" pageWidth="850" pageHeight="1100" math="0" shadow="0">
            <root>
                <mxCell id="0"/>
                <mxCell id="1" parent="0"/>
                <mxCell id="3" value="main" style="swimlane;whiteSpace=wrap;html=1;align=left;" vertex="1" parent="1">
                    <mxGeometry x="10" y="10" width="240" height="190" as="geometry"/>
                </mxCell>
                <mxCell id="5" value="* read args&lt;br&gt;* generate config&lt;br&gt;* read config&lt;br&gt;* create/open DB&lt;br&gt;* start DB request sheduler&amp;nbsp;&lt;br&gt;* listen dor incomming connections" style="text;html=1;strokeColor=none;fillColor=none;align=left;verticalAlign=middle;whiteSpace=wrap;rounded=0;" vertex="1" parent="3">
                    <mxGeometry y="40" width="190" height="110" as="geometry"/>
                </mxCell>
                <mxCell id="6" style="edgeStyle=none;html=1;exitX=1;exitY=0.75;exitDx=0;exitDy=0;" edge="1" parent="1" source="5" target="7">
                    <mxGeometry relative="1" as="geometry">
                        <mxPoint x="380" y="30" as="targetPoint"/>
                    </mxGeometry>
                </mxCell>
                <mxCell id="7" value="i_storage" style="swimlane;whiteSpace=wrap;html=1;" vertex="1" parent="1">
                    <mxGeometry x="290" y="10" width="310" height="190" as="geometry"/>
                </mxCell>
                <mxCell id="8" value="&lt;div style=&quot;&quot;&gt;&lt;span style=&quot;background-color: initial;&quot;&gt;* listen for&amp;nbsp; connections&lt;/span&gt;&lt;/div&gt;* provide capnp interface&lt;br&gt;* generate capnp interfaces for:&lt;br&gt;&amp;nbsp; &amp;nbsp; storage editor (r/w) capability&lt;br&gt;&amp;nbsp; &amp;nbsp; storage reader (r) capability" style="text;html=1;strokeColor=none;fillColor=none;align=left;verticalAlign=middle;whiteSpace=wrap;rounded=0;" vertex="1" parent="7">
                    <mxGeometry x="10" y="20" width="250" height="130" as="geometry"/>
                </mxCell>
            </root>
        </mxGraphModel>
    </diagram>
</mxfile>